<?xml version="1.0" encoding="UTF-8"?> <!-- Generator: Adobe Illustrator 15.0.2, SVG Export Plug-In . SVG Version: 6.00 Build 0) --> <svg xmlns="http://www.w3.org/2000/svg" xmlns:xlink="http://www.w3.org/1999/xlink" id="Layer_1" x="0px" y="0px" width="184.5px" height="166.141px" viewBox="0 0 184.5 166.141" xml:space="preserve"> <polygon fill="#FFFFFF" points="71.652,0 0,59.199 0,166.141 140,166.141 140,59.199 "></polygon> <circle fill="#D37813" cx="150.5" cy="64.855" r="34"></circle> <g> <path fill="#FFFFFF" d="M153.222,61.961h-6.293c-2.286,0-4.138-1.852-4.138-4.141s1.852-4.145,4.138-4.145h11.067 c1.508,0,2.744-1.232,2.744-2.742c0-1.506-1.236-2.738-2.744-2.738h-5.188v-3.826c0-1.516-1.234-2.736-2.747-2.736 c-1.51,0-2.748,1.221-2.748,2.736v3.826h-0.384c-5.308,0-9.627,4.316-9.627,9.625c0,5.303,4.319,9.623,9.627,9.623h6.293 c2.284,0,4.133,1.854,4.133,4.143c0,2.281-1.849,4.137-4.133,4.137h-11.276c-1.512,0-2.748,1.238-2.748,2.742 c0,1.52,1.236,2.75,2.748,2.75h5.396v3.914c0,1.502,1.236,2.738,2.745,2.738c1.507,0,2.747-1.236,2.747-2.738v-3.914h0.451 c0.024,0,0.044,0,0.072,0c5.258-0.072,9.487-4.367,9.487-9.629C162.845,66.281,158.519,61.961,153.222,61.961z"></path> </g> <g> <g> <g> <path fill="#808080" d="M87.826,73.506H53c-1.19,0-2.154,0.967-2.154,2.154v9.197c0,1.188,0.964,2.154,2.154,2.154h34.826 c1.191,0,2.154-0.967,2.154-2.154V75.66C89.98,74.473,89.018,73.506,87.826,73.506z M86.98,84.012H53.846v-7.506H86.98V84.012z"></path> </g> </g> <g> <g> <path fill="#808080" d="M90.428,66.621H50.51c-3.61,0-6.547,2.834-6.547,6.318v58.598c0,3.481,2.937,6.314,6.547,6.314h39.918 c3.61,0,6.547-2.833,6.547-6.314V72.939C96.975,69.455,94.038,66.621,90.428,66.621z M93.975,131.537 c0,1.827-1.591,3.314-3.547,3.314H50.51c-1.956,0-3.547-1.487-3.547-3.314V72.939c0-1.83,1.591-3.318,3.547-3.318h39.918 c1.956,0,3.547,1.488,3.547,3.318V131.537z"></path> </g> </g> <g> <path fill="#808080" d="M59.703,91.035h-7.176c-0.928,0-1.682,0.752-1.682,1.682v7.178c0,0.93,0.752,1.682,1.682,1.682h7.176 c0.93,0,1.684-0.752,1.684-1.682v-7.178C61.387,91.787,60.633,91.035,59.703,91.035z"></path> </g> <g> <path fill="#808080" d="M74.002,91.035h-7.176c-0.93,0-1.684,0.752-1.684,1.682v7.178c0,0.93,0.752,1.682,1.684,1.682h7.176 c0.93,0,1.682-0.752,1.682-1.682v-7.178C75.684,91.787,74.932,91.035,74.002,91.035z"></path> </g> <g> <path fill="#808080" d="M59.703,105.389h-7.176c-0.928,0-1.682,0.752-1.682,1.68v7.178c0,0.928,0.752,1.684,1.682,1.684h7.176 c0.93,0,1.684-0.754,1.684-1.684v-7.178C61.387,106.141,60.633,105.389,59.703,105.389z"></path> </g> <g> <path fill="#808080" d="M74.002,105.389h-7.176c-0.93,0-1.684,0.752-1.684,1.68v7.178c0,0.928,0.752,1.684,1.684,1.684h7.176 c0.93,0,1.682-0.754,1.682-1.684v-7.178C75.684,106.141,74.932,105.389,74.002,105.389z"></path> </g> <g> <path fill="#808080" d="M59.703,119.74h-7.176c-0.928,0-1.682,0.752-1.682,1.682v7.176c0,0.932,0.752,1.686,1.682,1.686h7.176 c0.93,0,1.684-0.754,1.684-1.686v-7.176C61.387,120.492,60.633,119.74,59.703,119.74z"></path> </g> <g> <path fill="#808080" d="M74.002,119.74h-7.176c-0.93,0-1.684,0.752-1.684,1.682v7.176c0,0.932,0.752,1.686,1.684,1.686h7.176 c0.93,0,1.682-0.754,1.682-1.686v-7.176C75.684,120.492,74.932,119.74,74.002,119.74z"></path> </g> <g> <path fill="#808080" d="M88.299,91.035h-7.178c-0.928,0-1.682,0.752-1.682,1.682v7.178c0,0.93,0.754,1.682,1.682,1.682h7.178 c0.928,0,1.682-0.752,1.682-1.682v-7.178C89.98,91.787,89.227,91.035,88.299,91.035z"></path> </g> <g> <path fill="#808080" d="M88.299,105.389h-7.178c-0.928,0-1.682,0.752-1.682,1.682v21.531c0,0.93,0.754,1.682,1.682,1.682h7.178 c0.928,0,1.682-0.752,1.682-1.682V107.07C89.98,106.141,89.227,105.389,88.299,105.389z"></path> </g> </g> </svg> 