<?xml version="1.0" encoding="UTF-8"?> <!-- Generator: Adobe Illustrator 15.0.2, SVG Export Plug-In . SVG Version: 6.00 Build 0) --> <svg xmlns="http://www.w3.org/2000/svg" xmlns:xlink="http://www.w3.org/1999/xlink" id="Layer_1" x="0px" y="0px" width="206.246px" height="62.053px" viewBox="0 0 206.246 62.053" xml:space="preserve"> <g> <path fill="#1D1E1C" d="M35.787,10.954l-11.239-0.012c0,0-4.675-0.277-6.69,1.708c-1.984,1.95-14.382,16.514-16.35,18.481 c-1.729,1.729-1.497,6.342-1.497,6.342v20.758l20.712,0.008c0,0,4.39,0.031,6.357-1.934c2.302-2.301,15.633-15.646,17.602-17.615 c1.965-1.963,2.015-6.34,2.015-6.34V0L35.787,10.954z M35.857,47.484H9.994v-25.94h25.863V47.484z"></path> <g> <path fill="#1D1E1C" d="M72.111,18.826v-7.783h3.259v20.121h-2.195l-0.499-2.062h-0.133c0,0-1.197,2.396-4.855,2.396 c-3.692,0-6.519-2.86-6.519-7.317c0-4.356,2.793-7.316,6.419-7.316c3.359,0,4.391,1.963,4.391,1.963H72.111z M68.354,19.556 c-2.262,0-3.892,1.896-3.892,4.623c0,2.694,1.63,4.622,3.892,4.622c2.229,0,3.957-1.762,3.957-4.622 C72.311,21.287,70.582,19.556,68.354,19.556z"></path> <path fill="#1D1E1C" d="M90.604,29.9c0,0-1.597,1.664-5.122,1.664c-4.557,0-7.316-3.094-7.316-7.352 c0-4.224,2.693-7.35,6.783-7.35c4.059,0,6.354,2.894,6.354,6.951c0,0.299-0.033,0.865-0.033,0.865h-9.911 c0.2,2.825,1.862,4.223,4.323,4.223c2.362,0,3.758-1.23,3.758-1.23L90.604,29.9z M81.49,22.516h6.553 c-0.233-2.028-1.331-3.126-3.161-3.126C83.087,19.39,81.857,20.421,81.49,22.516z"></path> <path fill="#1D1E1C" d="M94.262,27.638c0,0,2.029,1.363,4.624,1.363c1.895,0,2.595-0.664,2.595-1.597 c0-2.626-8.315-1.23-8.315-6.417c0-2.296,1.763-4.125,5.422-4.125c3.79,0,5.819,1.197,5.819,1.197l-1.097,2.527 c0,0-1.796-1.197-4.39-1.197c-1.663,0-2.529,0.498-2.529,1.497c0,2.528,8.382,0.932,8.382,6.353c0,2.294-1.631,4.257-5.787,4.257 c-4.092,0-5.888-1.63-5.888-1.63L94.262,27.638z"></path> <path fill="#1D1E1C" d="M108.531,17.195v-4.257h3.26v4.257h3.758v2.562h-3.758v7.084c0,1.196,0.565,1.862,1.762,1.862 c0.897,0,1.729-0.531,1.729-0.531l0.964,2.294c-0.332,0.233-1.663,1.031-3.358,1.031c-3.06,0-4.355-1.863-4.355-4.59v-7.15h-2.495 v-2.562H108.531z"></path> <path fill="#1D1E1C" d="M117.91,12.671c0-1.096,0.896-1.961,1.994-1.961c1.131,0,2.03,0.865,2.03,1.961 c0,1.132-0.899,1.963-2.03,1.963C118.807,14.634,117.91,13.803,117.91,12.671z M118.276,17.195h3.258v13.969h-3.258V17.195z"></path> <path fill="#1D1E1C" d="M125.261,17.195h2.128l0.398,1.996h0.199c1-1.529,2.329-2.328,4.69-2.328c3.624,0,5.819,2.527,5.819,6.285 v8.016h-3.259v-7.716c0-2.128-1.197-3.791-3.326-3.791c-2.194,0-3.292,1.729-3.393,3.158v8.349h-3.258V17.195z"></path> <path fill="#1D1E1C" d="M152.666,19.258l0.499-2.063h2.195v13.969h-2.195l-0.499-2.062h-0.134c0,0-1.197,2.396-4.855,2.396 c-3.692,0-6.518-2.86-6.518-7.317c0-4.356,2.793-7.316,6.451-7.316c3.725,0,4.922,2.396,4.922,2.396H152.666z M148.343,19.556 c-2.263,0-3.893,1.896-3.893,4.623c0,2.694,1.63,4.622,3.893,4.622c2.229,0,3.956-1.762,3.956-4.622 C152.299,21.287,150.571,19.556,148.343,19.556z"></path> <path fill="#1D1E1C" d="M160.017,17.195v-4.257h3.259v4.257h3.758v2.562h-3.758v7.084c0,1.196,0.565,1.862,1.763,1.862 c0.896,0,1.73-0.531,1.73-0.531l0.964,2.294c-0.332,0.233-1.664,1.031-3.359,1.031c-3.059,0-4.356-1.863-4.356-4.59v-7.15h-2.496 v-2.562H160.017z"></path> <path fill="#1D1E1C" d="M169.395,12.671c0-1.096,0.898-1.961,1.996-1.961c1.132,0,2.028,0.865,2.028,1.961 c0,1.132-0.896,1.963-2.028,1.963C170.293,14.634,169.395,13.803,169.395,12.671z M169.761,17.195h3.258v13.969h-3.258V17.195z"></path> <path fill="#1D1E1C" d="M183.03,31.497c-3.957,0-7.149-2.827-7.149-7.251c0-4.456,3.192-7.383,7.149-7.383 c3.958,0,7.185,2.927,7.185,7.383C190.215,28.669,186.988,31.497,183.03,31.497z M187.022,24.212c0-2.893-1.764-4.756-3.992-4.756 c-2.228,0-3.99,1.863-3.99,4.756s1.763,4.689,3.99,4.689C185.259,28.902,187.022,27.105,187.022,24.212z"></path> <path fill="#1D1E1C" d="M193.009,17.195h2.129l0.398,1.996h0.2c0.998-1.529,2.328-2.328,4.69-2.328 c3.624,0,5.819,2.527,5.819,6.285v8.016h-3.26v-7.716c0-2.128-1.197-3.791-3.325-3.791c-2.194,0-3.293,1.729-3.393,3.158v8.349 h-3.26V17.195z"></path> <path fill="#1D1E1C" d="M62.067,35.977h3.259V56.1h-3.259V35.977z"></path> <path fill="#1D1E1C" d="M68.719,37.607c0-1.098,0.898-1.961,1.996-1.961c1.13,0,2.028,0.863,2.028,1.961 c0,1.131-0.898,1.963-2.028,1.963C69.617,39.57,68.719,38.738,68.719,37.607z M69.085,42.131h3.259V56.1h-3.259V42.131z"></path> <path fill="#1D1E1C" d="M82.854,56.1H80.56l-6.32-13.969h3.592l3.525,9.078c0.166,0.334,0.266,0.732,0.266,1.031h0.166 c0-0.299,0.132-0.697,0.266-1.031l3.525-9.078h3.592L82.854,56.1z"></path> <path fill="#1D1E1C" d="M90.669,37.607c0-1.098,0.9-1.961,1.997-1.961c1.132,0,2.028,0.863,2.028,1.961 c0,1.131-0.896,1.963-2.028,1.963C91.57,39.57,90.669,38.738,90.669,37.607z M91.037,42.131h3.26V56.1h-3.26V42.131z"></path> <path fill="#1D1E1C" d="M98.02,42.131h2.128l0.4,1.996h0.2c0.997-1.531,2.327-2.33,4.689-2.33c3.624,0,5.819,2.529,5.819,6.287 V56.1h-3.26v-7.717c0-2.129-1.197-3.791-3.325-3.791c-2.196,0-3.292,1.729-3.391,3.158v8.35H98.02V42.131z"></path> <path fill="#1D1E1C" d="M128.086,55.168c0,3.99-2.361,6.885-6.983,6.885c-3.46,0-5.122-1.631-5.588-2.162l1.63-2.062 c0.266,0.301,1.596,1.629,3.891,1.629c2.461,0,3.825-1.463,3.791-4.189v-0.963h-0.132c0,0-0.964,2.127-4.39,2.127 c-3.628,0-6.42-2.961-6.42-7.316c0-4.457,2.828-7.318,6.519-7.318c3.76,0,4.855,2.561,4.855,2.561h0.168l0.466-2.227h2.193V55.168 z M121.068,44.492c-2.262,0-3.891,1.928-3.891,4.623c0,2.727,1.629,4.621,3.891,4.621c2.229,0,3.958-1.73,3.958-4.621 C125.026,46.254,123.297,44.492,121.068,44.492z"></path> </g> </g> </svg> 