<?xml version="1.0" encoding="UTF-8"?> <!-- Generator: Adobe Illustrator 15.0.2, SVG Export Plug-In . SVG Version: 6.00 Build 0) --> <svg xmlns="http://www.w3.org/2000/svg" xmlns:xlink="http://www.w3.org/1999/xlink" id="Layer_1" x="0px" y="0px" width="325.658px" height="317.398px" viewBox="0 0 325.658 317.398" xml:space="preserve"> <path fill="#808080" d="M185.903,135.07l-29.583-29.582H154.2l-29.583,29.582l2.121,2.121l2.605-2.605v33.055l1.5,1.5h48.834 l1.5-1.5v-33.055l2.605,2.605L185.903,135.07z M162.748,166.141h-14v-23h14V166.141z M178.179,166.141h-12.431v-24.5l-1.5-1.5h-17 l-1.5,1.5v24.5h-13.404v-34.555l22.917-22.916l22.917,22.916L178.179,166.141L178.179,166.141z"></path> <path fill="#C0888E" d="M61.636,285.796l1.58-2.567C25.631,254.893,3,210.343,3,162.484C3,106.73,33.651,56.191,81.359,29.969 l-1.077-2.832C31.418,53.822,0,105.481,0,162.484C0,211.391,23.169,256.908,61.636,285.796z"></path> <path fill="#C3A3A3" d="M298.248,208.223c-19.533,62-77.233,105.426-144.086,105.426c-15.586,0-31.063-2.428-45.812-7.104 l-1.623,2.64c15.255,4.916,31.289,7.464,47.435,7.464c39.263,0,76.665-14.769,105.317-41.58 c19.771-18.504,34.103-40.846,41.947-66.846H298.248L298.248,208.223z"></path> <path fill="#805671" d="M307.354,145.222c-8.608-77-74.021-136.901-153.192-136.901c-7.252,0-14.447,0.507-21.553,1.501l1.094,2.879 c6.748-0.913,13.578-1.38,20.459-1.38c77.517,0,141.578,58.901,150.174,133.901H307.354z"></path> <g> <path fill="#C3A3A3" d="M301.649,191.643l-1.541,1.199c0.477,0.614,0.817,1.325,1.013,2.114l1.896-0.468 C302.758,193.432,302.297,192.475,301.649,191.643z"></path> <path fill="#C3A3A3" d="M294.853,188.289l-0.231,1.939c0.911,0.108,1.747,0.297,2.483,0.559l0.654-1.842 C296.884,188.636,295.906,188.415,294.853,188.289z"></path> <path fill="#C3A3A3" d="M298.515,189.248l-0.797,1.784c0.781,0.348,1.446,0.799,1.977,1.339l1.396-1.368 C300.388,190.287,299.521,189.695,298.515,189.248z"></path> <path fill="#C3A3A3" d="M324.658,156.234h-39.181l-1,1v39.436l1,1h7.267l1-1.004v-6.506c0.062,0.004,0.106-0.004,0.166,0 l0.146-1.949c-0.486-0.036-2.314-0.055-2.314-0.055v7.514h-5.262v-21.279h5.707v-2h-5.707v-14.156h16.27v3.488h2v-3.488h18.91 v14.156h-3.744v2h3.744v12.596h-15.064l-1,1v7.685h-4.38c-0.012-0.121-0.019-0.231-0.037-0.364l-1.934,0.276 c0.006,0.038,0,2.088,0,2.088h7.351l1-1v-7.685h15.064l1-1v-30.751L324.658,156.234z"></path> <path fill="#C3A3A3" d="M302.748,168.337v5.056l1,1h3.494v6.018h2v-6.018l4.71-0.002l-0.006-1.998c-0.147,0-6.658,0-9.198,0v-4.056 H302.748z"></path> </g> <path fill="#805671" d="M123.417,9.296L116.634,6.3l-1.271,0.493l-9.209-4.061C105.952,2.621,101.191,0,97.088,0 c-1.146,0-2.156,0.206-3.002,0.612c-3.929,1.886-5.404,6.542-5.465,6.739l1.292,1.236c0.033-0.012,3.328-1.175,5.914-1.175 c0.763,0,1.365,0.101,1.791,0.299c1.739,0.808,3.015,3.658,3.36,4.688l0.544,0.599l0.107,0.048L89.212,41.183l0.512,1.318 l7.863,3.471l1.318-0.511l12.208-27.656l0.207,0.534l6.784,2.992l1.318-0.511l4.505-10.205L123.417,9.296z M98.461,5.898 c-0.691-0.322-1.578-0.485-2.635-0.485c-1.512,0-3.174,0.328-4.45,0.654c0.699-1.258,1.858-2.828,3.575-3.652 C95.525,2.14,96.244,2,97.088,2c3.58,0,8.049,2.456,8.175,2.521l9.259,4.086l-2.935,6.65l-8.869-3.917 C102.266,10.178,100.846,7.006,98.461,5.898z M97.479,43.738l-6.034-2.663l12.014-27.221l6.035,2.665L97.479,43.738z M117.997,19.098l-4.953-2.185l3.698-8.378l4.952,2.187L117.997,19.098z"></path> <g> <circle fill="#C0888E" cx="79.676" cy="309.355" r="1.5"></circle> <path fill="#C0888E" d="M114.215,281.296l-9.578-8.789l-1.413,0.062l-1.879,2.047l1.007-2.568l-0.566-1.295l-12.104-4.746 l-1.295,0.564l-1.211,3.088v-3.338l-1-1h-13l-1,1v40.08l-0.73,0.795l0.061,1.414l0.293,0.268l-0.569,1.451l0.565,1.295l0.381,0.15 v1.547l1,1h4.552l3.356,3.078l1.412-0.062l1.026-1.115l0.377,0.146l1.296-0.566l0.582-1.481h0.399l1-1v-1.08l27.1-29.529 L114.215,281.296z M85.176,312.32h-11v-6h11V312.32z M85.176,304.32h-11v-11h11V304.32z M85.176,291.32h-11v-11h11V291.32z M85.176,278.32h-11v-11h11V278.32z M87.176,275.136l2.707-6.903l10.241,4.016l-4.016,10.24l-8.933-3.502L87.176,275.136 L87.176,275.136z M87.176,292.32v-11.187l8.202,3.218l-4.015,10.239l-4.188-1.641L87.176,292.32L87.176,292.32z M87.176,305.269 v-10.171l3.457,1.354L87.176,305.269z M88.182,308.185l3.684-9.395l2.681,2.459L88.182,308.185z M95.898,299.777l-3.251-2.982 l0.213-0.543l4.093-10.438l6.383,5.856L95.898,299.777z M104.688,290.199l-6.952-6.381l1.584-4.037l4.702-5.125l8.104,7.438 L104.688,290.199z"></path> </g> </svg> 