<?xml version="1.0" encoding="UTF-8"?> <!-- Generator: Adobe Illustrator 15.0.2, SVG Export Plug-In . SVG Version: 6.00 Build 0) --> <svg xmlns="http://www.w3.org/2000/svg" xmlns:xlink="http://www.w3.org/1999/xlink" id="Layer_1" x="0px" y="0px" width="25px" height="25px" viewBox="0 0 25 25" xml:space="preserve"> <g> <g> <path fill="#B2B2B2" d="M12.5,0C5.607,0,0,5.607,0,12.5S5.607,25,12.5,25C19.392,25,25,19.393,25,12.5S19.393,0,12.5,0z M15.607,12.941h-2.033c0,3.248,0,7.246,0,7.246h-3.014c0,0,0-3.959,0-7.246H9.129v-2.562h1.432V8.723 c0-1.188,0.564-3.043,3.042-3.043l2.232,0.009v2.487c0,0-1.356,0-1.62,0c-0.265,0-0.639,0.131-0.639,0.697v1.506h2.295 L15.607,12.941z"></path> </g> </g> </svg> 