<?xml version="1.0" encoding="UTF-8"?> <!-- Generator: Adobe Illustrator 15.0.2, SVG Export Plug-In . SVG Version: 6.00 Build 0) --> <svg xmlns="http://www.w3.org/2000/svg" xmlns:xlink="http://www.w3.org/1999/xlink" id="Layer_1" x="0px" y="0px" width="25px" height="25px" viewBox="0 0 25 25" xml:space="preserve"> <path fill="#B2B2B2" d="M12.5,0C5.598,0,0,5.597,0,12.5S5.598,25,12.5,25C19.404,25,25,19.403,25,12.5S19.404,0,12.5,0z M13.385,16.45c-1.277,1.645-3.639,2.126-5.557,1.481c-2.039-0.669-3.52-2.722-3.475-4.872C4.252,10.401,6.58,7.946,9.24,7.914 c1.355-0.116,2.674,0.411,3.701,1.27c-0.422,0.463-0.85,0.92-1.307,1.349C10.73,9.983,9.643,9.565,8.588,9.937 c-1.703,0.484-2.734,2.496-2.104,4.161c0.521,1.74,2.637,2.694,4.297,1.964c0.857-0.308,1.424-1.1,1.672-1.951 c-0.984-0.02-1.969-0.008-2.953-0.035c-0.002-0.585-0.004-1.168-0.002-1.754c1.643-0.002,3.285-0.008,4.93,0.008 C14.527,13.764,14.316,15.299,13.385,16.45z M20.572,13.792c-0.49,0.003-0.982,0.006-1.473,0.008 c-0.004,0.492-0.006,0.982-0.01,1.474c-0.488-0.002-0.979,0-1.467,0c-0.004-0.491-0.004-0.981-0.01-1.471 c-0.488-0.005-0.98-0.008-1.471-0.011c0-0.489,0-0.977,0-1.467c0.49-0.002,0.98-0.004,1.471-0.01 c0.004-0.488,0.008-0.98,0.014-1.471c0.486,0,0.975,0,1.463,0c0.004,0.49,0.008,0.982,0.01,1.472c0.49,0.005,0.982,0.007,1.473,0.01 C20.572,12.815,20.572,13.303,20.572,13.792z"></path> </svg> 