<?xml version="1.0" encoding="UTF-8"?> <!-- Generator: Adobe Illustrator 15.0.2, SVG Export Plug-In . SVG Version: 6.00 Build 0) --> <svg xmlns="http://www.w3.org/2000/svg" xmlns:xlink="http://www.w3.org/1999/xlink" id="Layer_1" x="0px" y="0px" width="25px" height="25px" viewBox="0 0 25 25" xml:space="preserve"> <g> <path fill="#B2B2B2" d="M15.365,6.838h-5.73c-1.545,0-2.798,1.252-2.798,2.796v5.732c0,1.545,1.253,2.796,2.798,2.796h5.73 c1.545,0,2.798-1.251,2.798-2.796V9.634C18.163,8.09,16.91,6.838,15.365,6.838z M12.5,16.167c-2.021,0-3.667-1.645-3.667-3.667 s1.646-3.666,3.667-3.666s3.667,1.644,3.667,3.666S14.521,16.167,12.5,16.167z M16.174,9.739c-0.484,0-0.879-0.393-0.879-0.879 c0-0.485,0.395-0.878,0.879-0.878c0.485,0,0.879,0.393,0.879,0.878C17.053,9.347,16.659,9.739,16.174,9.739z"></path> <circle fill="#B2B2B2" cx="12.5" cy="12.5" r="2.241"></circle> <path fill="#B2B2B2" d="M12.5,0C5.596,0,0,5.597,0,12.5C0,19.404,5.596,25,12.5,25S25,19.404,25,12.5C25,5.597,19.404,0,12.5,0z M19.589,15.366c0,2.329-1.895,4.224-4.224,4.224h-5.73c-2.329,0-4.224-1.895-4.224-4.224V9.634c0-2.328,1.895-4.223,4.224-4.223 h5.73c2.329,0,4.224,1.895,4.224,4.223V15.366z"></path> </g> </svg> 