<?xml version="1.0" encoding="UTF-8"?> <!-- Generator: Adobe Illustrator 15.0.2, SVG Export Plug-In . SVG Version: 6.00 Build 0) --> <svg xmlns="http://www.w3.org/2000/svg" xmlns:xlink="http://www.w3.org/1999/xlink" id="Layer_1" x="0px" y="0px" width="25px" height="25px" viewBox="0 0 25 25" xml:space="preserve"> <g> <path fill="#B2B2B2" d="M13.838,10.976v-0.029c-0.008,0.01-0.016,0.02-0.021,0.029H13.838z"></path> <path fill="#B2B2B2" d="M12.5,0C5.598,0,0,5.597,0,12.5S5.598,25,12.5,25C19.404,25,25,19.403,25,12.5S19.404,0,12.5,0z M9.492,18.14H6.74V9.854h2.752V18.14z M8.117,8.724h-0.02c-0.924,0-1.521-0.637-1.521-1.432c0-0.813,0.615-1.432,1.559-1.432 c0.941,0,1.521,0.618,1.539,1.432C9.674,8.087,9.076,8.724,8.117,8.724z M19.426,18.14H16.67v-4.433 c0-1.112-0.396-1.874-1.395-1.874c-0.762,0-1.213,0.514-1.412,1.008c-0.072,0.177-0.092,0.423-0.092,0.672v4.627h-2.756 c0,0,0.037-7.508,0-8.285h2.756v1.174c0.367-0.563,1.02-1.369,2.482-1.369c1.812,0,3.172,1.185,3.172,3.729V18.14z"></path> </g> </svg> 