<?xml version="1.0" encoding="UTF-8"?> <!-- Generator: Adobe Illustrator 15.0.2, SVG Export Plug-In . SVG Version: 6.00 Build 0) --> <svg xmlns="http://www.w3.org/2000/svg" xmlns:xlink="http://www.w3.org/1999/xlink" id="Layer_1" x="0px" y="0px" width="25px" height="25px" viewBox="0 0 25 25" xml:space="preserve"> <path fill="#B2B2B2" d="M12.5,0C5.596,0,0,5.597,0,12.5C0,19.404,5.596,25,12.5,25S25,19.404,25,12.5C25,5.597,19.404,0,12.5,0z M13.443,16.513c-0.883-0.067-1.256-0.506-1.949-0.927c-0.381,2-0.846,3.917-2.225,4.917c-0.428-3.021,0.625-5.291,1.111-7.701 c-0.832-1.4,0.102-4.221,1.855-3.525c2.162,0.854-1.869,5.208,0.836,5.753c2.826,0.568,3.979-4.901,2.227-6.681 c-2.531-2.569-7.367-0.059-6.773,3.618c0.145,0.899,1.074,1.172,0.371,2.412c-1.619-0.358-2.104-1.636-2.041-3.34 c0.102-2.788,2.506-4.741,4.918-5.011c3.051-0.342,5.914,1.119,6.311,3.99C18.527,13.258,16.705,16.765,13.443,16.513z"></path> </svg> 