<?xml version="1.0" encoding="UTF-8"?> <!-- Generator: Adobe Illustrator 15.0.2, SVG Export Plug-In . SVG Version: 6.00 Build 0) --> <svg xmlns="http://www.w3.org/2000/svg" xmlns:xlink="http://www.w3.org/1999/xlink" id="Layer_1" x="0px" y="0px" width="25px" height="25px" viewBox="0 0 25 25" xml:space="preserve"> <path fill="#B2B2B2" d="M12.5,0C5.598,0,0,5.598,0,12.5C0,19.403,5.598,25,12.5,25C19.404,25,25,19.403,25,12.5S19.404,0,12.5,0z M18.322,9.897l0.008,0.372c0,3.798-2.889,8.173-8.172,8.173c-1.621,0-3.131-0.475-4.402-1.291c0.225,0.027,0.453,0.041,0.686,0.041 c1.346,0,2.584-0.459,3.566-1.229c-1.258-0.022-2.316-0.854-2.684-1.995c0.178,0.034,0.355,0.05,0.541,0.05 c0.264,0,0.518-0.033,0.758-0.099c-1.314-0.267-2.305-1.426-2.305-2.816v-0.037c0.389,0.217,0.83,0.345,1.301,0.361 c-0.77-0.516-1.277-1.395-1.277-2.391c0-0.525,0.141-1.02,0.389-1.443c1.416,1.738,3.533,2.881,5.92,3.001 c-0.049-0.21-0.074-0.431-0.074-0.654c0-1.586,1.285-2.872,2.873-2.872c0.826,0,1.572,0.35,2.098,0.906 c0.652-0.129,1.268-0.367,1.824-0.695c-0.215,0.67-0.67,1.232-1.264,1.589c0.58-0.069,1.135-0.225,1.65-0.452 C19.371,8.989,18.883,9.495,18.322,9.897z"></path> </svg> 